<?xml version="1.0" encoding="UTF-8"?> <svg xmlns="http://www.w3.org/2000/svg" id="Livello_2" data-name="Livello 2" viewBox="0 0 252.83 87.75"><defs><style> .cls-1 { fill: none; stroke: #ea580c; stroke-linecap: round; stroke-miterlimit: 10; stroke-width: 6.66px; } .cls-2 { fill: #f0f0f0; } .cls-2, .cls-3 { stroke-width: 0px; } .cls-3 { fill: #ea580c; } </style></defs><g id="Livello_1-2" data-name="Livello 1"><g><path class="cls-3" d="m23.04,86.55c0,.36-.16.64-.47.85-.23.15-.45.23-.66.23-.36,0-.72-.23-1.08-.7l-9.29-11.77-9.39,11.69c-.34.46-.7.69-1.08.69-.21,0-.42-.08-.65-.23-.28-.21-.42-.49-.42-.85,0-.26.11-.52.31-.81l9.86-12.27L.88,60.79c-.18-.21-.27-.48-.27-.81,0-.39.14-.67.43-.85.23-.15.44-.23.62-.23.33,0,.69.23,1.08.7l8.83,11.19,8.93-11.11c.36-.46.72-.69,1.08-.69.23,0,.44.08.62.23.31.18.46.47.46.85,0,.26-.1.53-.31.81l-9.35,12.51,9.75,12.35c.2.29.31.55.31.81"></path><path class="cls-3" d="m46.45,68.68c.01-2.47-.66-4.27-2-5.39-1.35-1.12-3.37-1.69-6.07-1.7l-6.87-.03c-.64,0-1.16.21-1.55.63-.39.42-.58.97-.59,1.64l-.05,12.16,8.95.04c5.43.03,8.15-2.99,8.17-7.34m-19.32,18.66c-.22-.25-.33-.59-.32-1.02l.1-22.43c0-1.39.42-2.47,1.25-3.26.83-.78,1.99-1.17,3.48-1.16l6.56.03c7.2.03,10.79,3.1,10.77,9.19-.01,2.78-.94,5.76-2.79,7.25-1.85,1.49-4.49,2.22-7.94,2.2l-8.92-.04-.04,8.22c0,.44-.11.78-.33,1.02-.22.24-.52.36-.91.36-.39,0-.69-.12-.91-.37"></path><path class="cls-3" d="m53.31,86.45c-.83-.79-1.25-1.89-1.24-3.3l.08-18.96c0-1.39.42-2.47,1.25-3.26.83-.78,1.99-1.17,3.48-1.16l11.96.05c.88,0,1.31.37,1.31,1.09,0,.67-.44,1-1.32,1l-12.08-.05c-.64,0-1.16.21-1.55.63-.39.42-.58.97-.59,1.64l-.03,8.65,11.27.05c.87,0,1.31.37,1.31,1.09,0,.34-.12.59-.35.77-.23.18-.55.27-.97.27l-11.27-.05-.04,8.34c0,.69.19,1.25.57,1.66.39.41.9.62,1.54.62l12.93.06c.87,0,1.31.37,1.31,1.09,0,.33-.12.59-.35.77-.23.18-.56.27-.97.26l-12.77-.06c-1.49,0-2.65-.4-3.49-1.19"></path><path class="cls-3" d="m85.12,74.98c2.37,0,4.24-.44,5.62-1.35,1.38-.91,2.08-3.32,2.09-5.53.01-2.32-.62-3.97-1.89-4.95-1.27-.98-3.18-1.48-5.72-1.49l-7.14-.03c-.64,0-1.15.2-1.53.61-.38.41-.56.95-.57,1.62l-.05,11.08,9.19.04Zm-11.8-11.1c0-1.34.42-2.42,1.23-3.25.81-.83,2.01-1.25,3.58-1.24l6.91.03c7.02.03,10.52,2.93,10.5,8.69-.01,2.73-.9,5.64-2.65,7.04-1.76,1.39-4.41,2.08-7.96,2.07l7.91,8.45c.26.26.38.54.38.85,0,.36-.16.66-.47.89-.26.2-.5.31-.73.31-.41,0-.84-.25-1.27-.74l-9.1-9.77-5.71-.03-.04,8.99c0,.46-.12.82-.35,1.08-.23.26-.57.38-1.01.38-.41,0-.73-.13-.96-.39-.23-.26-.34-.62-.34-1.08l.09-22.27Z"></path><path class="cls-3" d="m105.22,86.21l.11-24.78-9.11-.04c-.88,0-1.31-.34-1.31-1.01,0-.39.11-.66.33-.83.22-.17.55-.25.99-.25l20.72.09c.87,0,1.31.37,1.31,1.09,0,.67-.44,1-1.32,1l-9.11-.04-.11,24.78c0,.44-.12.78-.35,1.02-.23.24-.54.36-.93.36-.82,0-1.23-.47-1.23-1.39"></path><path class="cls-2" d="m118.48,87.26c-.2-.25-.3-.59-.3-1.02l.08-18.61c.01-2.7.76-4.81,2.25-6.34,1.49-1.52,3.53-2.28,6.14-2.27,1.57,0,3.01.43,4.34,1.25,1.32.83,2.27,1.93,2.85,3.29.59-1.39,1.53-2.48,2.84-3.29,1.31-.8,2.77-1.2,4.39-1.2,2.6.01,4.64.79,6.12,2.32,1.47,1.54,2.2,3.66,2.19,6.36l-.08,18.61c0,.44-.11.78-.33,1.02-.22.24-.51.36-.89.36-.81,0-1.21-.47-1.21-1.39l.08-18.61c0-2.14-.46-3.75-1.4-4.83-.94-1.09-2.45-1.63-4.53-1.64-1.87,0-3.34.56-4.41,1.7-1.07,1.14-1.6,2.71-1.61,4.72l-.08,18.61c0,.44-.1.78-.31,1.02-.2.24-.49.36-.87.36-.38,0-.67-.12-.87-.37-.2-.25-.3-.59-.3-1.02l.08-18.61c0-1.95-.53-3.52-1.63-4.7-1.1-1.18-2.54-1.77-4.34-1.77-2.07,0-3.59.52-4.54,1.6-.95,1.08-1.43,2.68-1.44,4.82l-.08,18.61c0,.44-.11.78-.33,1.02-.22.24-.53.36-.93.36-.38,0-.67-.12-.87-.37"></path><path class="cls-2" d="m172,84.11c1.66-.91,2.97-2.24,3.94-4,.97-1.76,1.46-3.86,1.47-6.3.01-2.47-.47-5.44-1.43-7.21-.97-1.77-2.28-3.1-3.93-4.01-1.65-.91-3.5-1.38-5.55-1.41-2.07,0-3.94.44-5.58,1.35-1.65.91-2.96,2.24-3.93,4.02-.97,1.77-1.46,4.73-1.47,7.18-.01,2.44.46,4.55,1.41,6.32.95,1.77,2.25,3.11,3.89,4.03,1.64.92,3.5,1.38,5.57,1.39,2.07,0,3.94-.44,5.6-1.35m-12.36,1.8c-2.02-1.15-3.62-2.78-4.8-4.88-1.18-2.1-1.76-4.54-1.75-7.32.01-2.78.61-6.07,1.8-8.18,1.19-2.1,2.8-3.72,4.84-4.84,2.04-1.12,4.3-1.68,6.78-1.67,2.48.01,4.73.59,6.76,1.73,2.03,1.14,3.64,2.77,4.82,4.88,1.18,2.12,1.76,5.42,1.75,8.19-.01,2.78-.62,5.21-1.82,7.31-1.2,2.09-2.82,3.71-4.86,4.84-2.04,1.14-4.3,1.7-6.78,1.69-2.48-.01-4.73-.59-6.74-1.75"></path><path class="cls-2" d="m187.63,86.31l.11-24.78-8.95-.04c-.86,0-1.29-.34-1.29-1.01,0-.39.11-.66.33-.83.22-.17.54-.25.97-.25l20.37.09c.86,0,1.29.37,1.29,1.09,0,.67-.44,1-1.29,1l-8.95-.04-.11,24.78c0,.44-.12.78-.35,1.02-.23.24-.53.36-.91.36-.81,0-1.21-.47-1.21-1.39"></path><path class="cls-2" d="m203.01,87.33c-.21-.25-.32-.59-.32-1.02l.11-25.86c0-.93.41-1.39,1.22-1.38.38,0,.68.13.89.37.21.25.32.59.32,1.02l-.11,25.86c0,.44-.11.78-.33,1.02-.22.24-.51.36-.89.36-.38,0-.68-.13-.89-.37"></path><path class="cls-2" d="m217.07,85.87c-.9-1.21-1.74-3.19-2.52-5.92l-5.34-19.4c-.07-.23-.11-.44-.11-.62,0-.62.38-.92,1.14-.92.4,0,.7.09.89.27.19.18.35.52.47,1.01l5.31,19.44c.6,2.09,1.18,3.57,1.74,4.47.57.89,1.21,1.34,1.95,1.34.71,0,1.35-.44,1.92-1.32.57-.88,1.18-2.37,1.82-4.45l5.43-19.43c.15-.49.33-.81.52-.98.19-.17.49-.25.89-.25.73,0,1.1.3,1.1.89,0,.21-.04.42-.12.65l-5.51,19.36c-.82,2.8-1.7,4.78-2.62,5.95-.93,1.17-2.08,1.75-3.44,1.74-1.44,0-2.62-.62-3.52-1.83"></path><path class="cls-2" d="m235.55,86.46c-.82-.79-1.22-1.89-1.22-3.31l.08-18.95c0-1.39.41-2.47,1.23-3.26.81-.78,1.95-1.17,3.42-1.16l11.76.05c.86,0,1.29.36,1.29,1.09,0,.67-.43,1-1.29,1l-11.88-.05c-.63,0-1.14.21-1.52.63-.38.42-.57.97-.58,1.64l-.03,8.65,11.08.05c.86,0,1.29.37,1.29,1.09,0,.33-.12.59-.35.77-.23.18-.54.27-.95.27l-11.08-.05-.04,8.34c0,.7.18,1.25.56,1.66.38.41.88.62,1.51.62l12.71.06c.86,0,1.29.37,1.29,1.09,0,.33-.12.59-.35.77-.23.18-.54.27-.95.27l-12.56-.06c-1.47,0-2.61-.4-3.43-1.19"></path><path class="cls-1" d="m65.06,43.42L104.59,3.33m39.82.08v39.7m0-39.7l39.7,39.7M104.59,3.34l39.82,39.78M65.06,3.72l39.7,39.7"></path></g></g></svg> 